<?xml version="1.0" encoding="UTF-8" standalone="no" ?>
<!DOCTYPE svg PUBLIC "-//W3C//DTD SVG 1.1//EN" "http://www.w3.org/Graphics/SVG/1.1/DTD/svg11.dtd">
<svg xmlns="http://www.w3.org/2000/svg" xmlns:xlink="http://www.w3.org/1999/xlink" version="1.1" width="500" height="500" viewBox="0 0 500 500" xml:space="preserve">
<desc>Created with Fabric.js 4.6.0</desc>
<defs>
</defs>
<g transform="matrix(6.23 0 0 6.23 249.97 250.03)" id="yRMd-JfD7Mfz7Xw_mTfAl"  >
<path style="stroke: none; stroke-width: 1; stroke-dasharray: none; stroke-linecap: butt; stroke-dashoffset: 0; stroke-linejoin: miter; stroke-miterlimit: 4; fill: rgb(251,175,0); fill-rule: nonzero; opacity: 1;" vector-effect="non-scaling-stroke"  transform=" translate(0, 0)" d="M 0 -20.706 L 10.718 -40 L 10.353 -17.932 L 29.281999999999996 -29.281999999999996 L 17.931999999999995 -10.352999999999998 L 40 -10.717999999999998 L 20.706 1.7763568394002505e-15 L 40 10.718000000000002 L 17.932 10.353000000000002 L 29.281999999999996 29.282 L 10.352999999999998 17.932000000000002 L 10.717999999999998 40 L -1.7763568394002505e-15 20.706 L -10.718000000000002 40 L -10.353000000000002 17.932 L -29.282 29.281999999999996 L -17.932000000000002 10.352999999999998 L -40 10.717999999999998 L -20.706 -1.7763568394002505e-15 L -40 -10.718000000000002 L -17.932 -10.353000000000002 L -29.281999999999996 -29.282 L -10.352999999999998 -17.932000000000002 L -10.717999999999998 -40 z" stroke-linecap="round" />
</g>
</svg>